<!-- Exported by Character Map UWP -->
<svg height="100%" viewBox="64 64 840 832" width="100%" xmlns="http://www.w3.org/2000/svg" xmlns:xlink="http://www.w3.org/1999/xlink">
  <path d="M904,798.5C904,810.5 903.333,822.75 902,835.25C900.667,847.75 898.333,859.833 895,871.5C893,878.833 889.25,884.75 883.75,889.25C878.25,893.75 871.667,896 864,896L96,896C87.3333,896 79.8333,892.833 73.5,886.5C67.1667,880.167 64,872.667 64,864C64,855.333 67.1667,847.833 73.5,841.5L841.5,73.5C847.833,67.1667 855.333,64.0001 864,64C872.667,64.0001 880.167,67.1667 886.5,73.5C892.833,79.8334 896,87.3334 896,96C896,104.667 892.833,112.167 886.5,118.5L173.5,832L837.5,832C838.167,826.667 838.667,821.333 839,816C839.333,810.667 839.5,805.167 839.5,799.5C839.5,771.5 835.5,745.25 827.5,720.75C819.5,696.25 807.917,674.417 792.75,655.25C777.583,636.083 759,620.083 737,607.25C715,594.417 690,585.5 662,580.5C664,584.833 667.333,591.25 672,599.75C676.667,608.25 681.417,617.167 686.25,626.5C691.083,635.833 695.25,644.75 698.75,653.25C702.25,661.75 704,668 704,672C704,680.667 700.833,688.167 694.5,694.5C688.167,700.833 680.667,704 672,704C666.333,704 660.833,702.417 655.5,699.25C650.167,696.083 646.167,691.833 643.5,686.5L579.5,558.5C578.5,556.5 577.667,554.083 577,551.25C576.333,548.417 576,546 576,544C576,538.333 577.667,532.833 581,527.5C584.333,522.167 588.5,518.167 593.5,515.5L721.5,451.5C726.167,449.167 731,448 736,448C744.667,448 752.167,451.167 758.5,457.5C764.833,463.833 768,471.333 768,480C768,487 766.083,492.917 762.25,497.75C758.417,502.583 753.75,506.75 748.25,510.25C742.75,513.75 736.833,516.833 730.5,519.5C724.167,522.167 718.5,524.667 713.5,527C743.5,536.667 770.333,550.417 794,568.25C817.667,586.083 837.583,606.833 853.75,630.5C869.917,654.167 882.333,680.333 891,709C899.667,737.667 904,767.5 904,798.5Z" fill="#FFFFFF" fill-opacity="1">
  </path>
</svg>