<!-- Exported by Character Map UWP -->
<svg height="100%" viewBox="20 128 985 769" width="100%" xmlns="http://www.w3.org/2000/svg" xmlns:xlink="http://www.w3.org/1999/xlink">
  <path d="M1004.5,800C1004.5,813.333 1001.92,825.833 996.75,837.5C991.583,849.167 984.667,859.333 976,868C967.333,876.667 957.083,883.5 945.25,888.5C933.417,893.5 921,896 908,896L116,896C102.667,896 90.1667,893.5 78.5,888.5C66.8333,883.5 56.6667,876.667 48,868C39.3333,859.333 32.5,849.167 27.5,837.5C22.5,825.833 20,813.333 20,800C20,791 21,782.5 23,774.5L180.5,198.5C183.5,188.167 187.917,178.667 193.75,170C199.583,161.333 206.583,153.917 214.75,147.75C222.917,141.583 232,136.75 242,133.25C252,129.75 262.333,128 273,128C297,128 320.75,127.917 344.25,127.75C367.75,127.583 391.5,127.5 415.5,127.5C448.167,127.5 480.583,127.583 512.75,127.75C544.917,127.917 577.333,128 610,128L751,128C761.667,128 772,129.75 782,133.25C792,136.75 801.083,141.583 809.25,147.75C817.417,153.917 824.5,161.333 830.5,170C836.5,178.667 841,188.167 844,198.5L1001,774.5C1003.33,782.5 1004.5,791 1004.5,800ZM273,192C266,192 259.583,194.167 253.75,198.5C247.917,202.833 244,208.5 242,215.5L213.5,320L369,320L381,192ZM590.5,320L578.5,192L445.5,192L433.5,320ZM751,192L643,192L655,320L810.5,320L782,215.5C780,208.5 776.083,202.833 770.25,198.5C764.417,194.167 758,192 751,192ZM363.5,384L196,384L143.5,576L346,576ZM428,384L410.5,576L613.5,576L596,384ZM828,384L660.5,384L678,576L880.5,576ZM116,832L322.5,832L340,640L126.5,640L85,791.5C84.3333,794.833 84,797.667 84,800C84,809 87.0833,816.583 93.25,822.75C99.4167,828.917 107,832 116,832ZM940,800.5C940,798.833 940,797.333 940,796C940,794.667 939.667,793.167 939,791.5L897.5,640L684,640L701.5,832L908,832C916.667,832 924.167,829 930.5,823C936.833,817 940,809.5 940,800.5ZM637,832L619.5,640L404.5,640L387,832Z" fill="#FFFFFF" fill-opacity="1">
  </path>
</svg>