<!-- Exported by Character Map UWP -->
<svg height="100%" viewBox="128 7 832 1013" width="100%" xmlns="http://www.w3.org/2000/svg" xmlns:xlink="http://www.w3.org/1999/xlink">
  <path d="M960,512L960,517C960,539.333 956.917,561 950.75,582C944.583,603 935.917,622.833 924.75,641.5C913.583,660.167 900.25,677.25 884.75,692.75C869.25,708.25 852.167,721.583 833.5,732.75C814.833,743.917 795,752.583 774,758.75C753,764.917 731.333,768 709,768C684.667,768 661.667,765.333 640,760L640,768.5C640,803.167 633.083,835.75 619.25,866.25C605.417,896.75 586.75,923.333 563.25,946C539.75,968.667 512.583,986.583 481.75,999.75C450.917,1012.92 418.333,1019.5 384,1019.5C349.667,1019.5 317.083,1012.92 286.25,999.75C255.417,986.583 228.25,968.667 204.75,946C181.25,923.333 162.583,896.75 148.75,866.25C134.917,835.75 128,803.167 128,768.5L128,759C128,726 134.583,694.417 147.75,664.25C160.917,634.083 178.75,607.5 201.25,584.5C223.75,561.5 249.917,543.083 279.75,529.25C309.583,515.417 341.167,508.167 374.5,507.5C347.5,500.167 322.833,488.417 300.5,472.25C278.167,456.083 258.917,437.083 242.75,415.25C226.583,393.417 214.083,369.417 205.25,343.25C196.417,317.083 192,290.167 192,262.5C192,228.167 198.583,195.583 211.75,164.75C224.917,133.917 242.833,106.75 265.5,83.25C288.167,59.75 314.75,41.0834 345.25,27.25C375.75,13.4167 408.333,6.5 443,6.5L452.5,6.5C474.5,6.5 496.083,9.58337 517.25,15.75C538.417,21.9167 558.25,30.5001 576.75,41.5C595.25,52.5001 612.333,65.6667 628,81C643.667,96.3334 657.083,113.25 668.25,131.75C679.417,150.25 688.167,170 694.5,191C700.833,212 704,233.667 704,256L709,256C743.667,256 776.25,262.917 806.75,276.75C837.25,290.583 863.833,309.25 886.5,332.75C909.167,356.25 927.083,383.417 940.25,414.25C953.417,445.083 960,477.667 960,512ZM454.5,454.5C459.833,431.167 468.167,409.25 479.5,388.75C490.833,368.25 504.5,349.75 520.5,333.25C536.5,316.75 554.667,302.583 575,290.75C595.333,278.917 617,270 640,264L640,262.5C640,235.833 635,210.833 625,187.5C615,164.167 601.333,143.833 584,126.5C566.667,109.167 546.333,95.5 523,85.5C499.667,75.5 474.667,70.5 448,70.5C421.333,70.5 396.333,75.5 373,85.5C349.667,95.5 329.333,109.167 312,126.5C294.667,143.833 281,164.167 271,187.5C261,210.833 256,235.833 256,262.5C256,288.167 260.917,312.583 270.75,335.75C280.583,358.917 294,379.333 311,397C328,414.667 347.917,428.667 370.75,439C393.583,449.333 418,454.5 444,454.5ZM896,512L896,508C896,482 890.833,457.583 880.5,434.75C870.167,411.917 856.167,392 838.5,375C820.833,358 800.417,344.583 777.25,334.75C754.083,324.917 729.667,320 704,320C678.333,320 653.917,324.917 630.75,334.75C607.583,344.583 587.167,358 569.5,375C551.833,392 537.833,411.917 527.5,434.75C517.167,457.583 512,482 512,508C512,514 512.167,519.917 512.5,525.75C512.833,531.583 513.5,537.5 514.5,543.5C541.833,559.833 565.417,580.583 585.25,605.75C605.083,630.917 619.667,658.667 629,689C642,694.667 654.917,698.583 667.75,700.75C680.583,702.917 694,704 708,704C734,704 758.417,698.833 781.25,688.5C804.083,678.167 824,664.167 841,646.5C858,628.833 871.417,608.417 881.25,585.25C891.083,562.083 896,537.667 896,512ZM576,763.5L576,759.5C576,733.5 570.75,709.083 560.25,686.25C549.75,663.417 535.75,643.5 518.25,626.5C500.75,609.5 480.333,596.083 457,586.25C433.667,576.417 409.333,571.5 384,571.5C357.333,571.5 332.417,576.5 309.25,586.5C286.083,596.5 265.75,610.25 248.25,627.75C230.75,645.25 217,665.667 207,689C197,712.333 192,737.167 192,763.5C192,790.167 197,815.167 207,838.5C217,861.833 230.667,882.167 248,899.5C265.333,916.833 285.667,930.5 309,940.5C332.333,950.5 357.333,955.5 384,955.5C410.667,955.5 435.667,950.5 459,940.5C482.333,930.5 502.667,916.833 520,899.5C537.333,882.167 551,861.833 561,838.5C571,815.167 576,790.167 576,763.5Z" fill="#FFFFFF" fill-opacity="1">
  </path>
</svg>