<!-- Exported by Character Map UWP -->
<svg height="100%" viewBox="129 0 768 1024" width="100%" xmlns="http://www.w3.org/2000/svg" xmlns:xlink="http://www.w3.org/1999/xlink">
  <path d="M771.5,0C788.167,0 804.083,3.41669 819.25,10.25C834.417,17.0834 847.75,26.2501 859.25,37.75C870.75,49.2501 879.917,62.5834 886.75,77.75C893.583,92.9167 897,108.833 897,125.5L897,898.5C897,915.167 893.583,931.083 886.75,946.25C879.917,961.417 870.75,974.75 859.25,986.25C847.75,997.75 834.417,1006.92 819.25,1013.75C804.083,1020.58 788.167,1024 771.5,1024L254.5,1024C237.167,1024 220.917,1020.5 205.75,1013.5C190.583,1006.5 177.333,997.167 166,985.5C154.667,973.833 145.667,960.25 139,944.75C132.333,929.25 129,913 129,896L129,128C129,111 132.333,94.75 139,79.25C145.667,63.75 154.667,50.1667 166,38.5C177.333,26.8334 190.583,17.5 205.75,10.5C220.917,3.5 237.167,0 254.5,0ZM833,128C833,119.333 831.333,111.083 828,103.25C824.667,95.4167 820.083,88.5834 814.25,82.75C808.417,76.9167 801.583,72.3334 793.75,69C785.917,65.6667 777.667,64.0001 769,64L257,64C248,64.0001 239.667,65.6667 232,69C224.333,72.3334 217.583,76.9167 211.75,82.75C205.917,88.5834 201.333,95.3334 198,103C194.667,110.667 193,119 193,128L193,896C193,905 194.667,913.417 198,921.25C201.333,929.083 205.833,935.833 211.5,941.5C217.167,947.167 223.917,951.667 231.75,955C239.583,958.333 248,960 257,960L769,960C777.667,960 785.917,958.333 793.75,955C801.583,951.667 808.417,947.083 814.25,941.25C820.083,935.417 824.667,928.583 828,920.75C831.333,912.917 833,904.667 833,896ZM769,387.5C769,419.167 763,449.417 751,478.25C739,507.083 722.75,532.917 702.25,555.75C681.75,578.583 657.667,597.25 630,611.75C602.333,626.25 572.833,635 541.5,638L446.5,876C444.167,881.667 440.25,886.417 434.75,890.25C429.25,894.083 423.333,896 417,896L289,896C280.333,896 272.833,892.833 266.5,886.5C260.167,880.167 257,872.667 257,864L257,736C257,725.333 261.167,716.833 269.5,710.5L399,613.5C376.333,602.5 356.167,588.75 338.5,572.25C320.833,555.75 306,537.333 294,517C282,496.667 272.833,474.833 266.5,451.5C260.167,428.167 257,404 257,379C257,344.333 263.917,311.75 277.75,281.25C291.583,250.75 310.25,224.167 333.75,201.5C357.25,178.833 384.417,160.917 415.25,147.75C446.083,134.583 478.667,128 513,128C547.333,128 579.917,134.583 610.75,147.75C641.583,160.917 668.75,178.833 692.25,201.5C715.75,224.167 734.417,250.75 748.25,281.25C762.083,311.75 769,344.333 769,379ZM570,567.5C590.667,561.167 609.333,551.917 626,539.75C642.667,527.583 656.833,513.25 668.5,496.75C680.167,480.25 689.167,462.083 695.5,442.25C701.833,422.417 705,401.833 705,380.5C705,354.5 699.833,330.083 689.5,307.25C679.167,284.417 665.25,264.417 647.75,247.25C630.25,230.083 609.833,216.583 586.5,206.75C563.167,196.917 538.667,192 513,192C487.333,192 462.917,196.917 439.75,206.75C416.583,216.583 396.167,230 378.5,247C360.833,264 346.833,283.917 336.5,306.75C326.167,329.583 321,354 321,380C321,402 324.167,423 330.5,443C336.833,463 346,481.25 358,497.75C370,514.25 384.5,528.583 401.5,540.75C418.5,552.917 437.667,562.167 459,568.5L525.5,518.5C531.167,514.167 537.667,512 545,512C553.667,512 561.167,515.167 567.5,521.5C573.833,527.833 577,535.333 577,544C577,547.667 576.25,551.583 574.75,555.75C573.25,559.917 571.667,563.833 570,567.5ZM576,384C576,393 574.333,401.417 571,409.25C567.667,417.083 563,423.917 557,429.75C551,435.583 544.083,440.083 536.25,443.25C528.417,446.417 520,448 511,448C502.333,448 494.167,446.25 486.5,442.75C478.833,439.25 472.167,434.583 466.5,428.75C460.833,422.917 456.333,416.167 453,408.5C449.667,400.833 448,392.667 448,384C448,375 449.667,366.667 453,359C456.333,351.333 460.917,344.583 466.75,338.75C472.583,332.917 479.333,328.333 487,325C494.667,321.667 503,320 512,320C520.667,320 528.917,321.667 536.75,325C544.583,328.333 551.417,332.917 557.25,338.75C563.083,344.583 567.667,351.417 571,359.25C574.333,367.083 576,375.333 576,384ZM321,832L395,832L472.5,638L321,752Z" fill="#FFFFFF" fill-opacity="1">
  </path>
</svg>