<!-- Exported by Character Map UWP -->
<svg height="100%" viewBox="128 0 768 1024" width="100%" xmlns="http://www.w3.org/2000/svg" xmlns:xlink="http://www.w3.org/1999/xlink">
  <path d="M128,624C128,589.667 132.083,555.833 140.25,522.5C148.417,489.167 160.833,457.333 177.5,427C180.167,422.333 182.917,417.5 185.75,412.5C188.583,407.5 191.667,402.833 195,398.5C198.667,393.833 202.5,390.25 206.5,387.75C210.5,385.25 215.667,384 222,384C227.333,384 232.5,385.333 237.5,388C242.5,390.667 246.333,394.333 249,399L315.5,507.5C318.5,512.5 322.583,516.417 327.75,519.25C332.917,522.083 338.5,523.5 344.5,523.5C355.833,523.5 364.75,519.333 371.25,511C377.75,502.667 381,493.167 381,482.5C381,477.833 380.417,473.583 379.25,469.75C378.083,465.917 376.667,462 375,458C361.333,428.667 350.167,399.75 341.5,371.25C332.833,342.75 328.5,312 328.5,279C328.5,237 335.583,200.167 349.75,168.5C363.917,136.833 383.417,109.667 408.25,87C433.083,64.3334 462.167,46 495.5,32C528.833,18 564.5,7.5 602.5,0.5C603.833,0.166687 605.667,0 608,0C615.667,0 622.5,2.5 628.5,7.5C636.167,14.1667 640,22.3334 640,32C640,82 648.5,129.75 665.5,175.25C682.5,220.75 706,263.167 736,302.5C754.333,326.5 772.917,350.75 791.75,375.25C810.583,399.75 827.75,425.083 843.25,451.25C858.75,477.417 871.417,504.75 881.25,533.25C891.083,561.75 896,592 896,624C896,659.667 891.583,694.333 882.75,728C873.917,761.667 861.333,793.333 845,823C828.667,852.667 809,879.75 786,904.25C763,928.75 737.25,949.917 708.75,967.75C680.25,985.583 649.417,999.417 616.25,1009.25C583.083,1019.08 548.333,1024 512,1024C475.333,1024 440.5,1019.08 407.5,1009.25C374.5,999.417 343.75,985.583 315.25,967.75C286.75,949.917 261,928.75 238,904.25C215,879.75 195.333,852.667 179,823C162.667,793.333 150.083,761.667 141.25,728C132.417,694.333 128,659.667 128,624ZM832,620.5C832,594.833 827.083,569.417 817.25,544.25C807.417,519.083 795.083,494.667 780.25,471C765.417,447.333 749.417,424.583 732.25,402.75C715.083,380.917 699.167,360.167 684.5,340.5C654.5,300.833 630.333,258.417 612,213.25C593.667,168.083 582.167,120.667 577.5,71C550.5,77.6667 525.75,86.8334 503.25,98.5C480.75,110.167 461.25,124.583 444.75,141.75C428.25,158.917 415.417,178.917 406.25,201.75C397.083,224.583 392.5,250.667 392.5,280C392.5,306.667 396.083,332.167 403.25,356.5C410.417,380.833 419.833,404.833 431.5,428.5C435.833,437.167 439.083,446 441.25,455C443.417,464 444.5,473.333 444.5,483C444.5,497 442.083,510.417 437.25,523.25C432.417,536.083 425.583,547.25 416.75,556.75C407.917,566.25 397.417,573.833 385.25,579.5C373.083,585.167 359.667,588 345,588C327.333,588 311.25,583.917 296.75,575.75C282.25,567.583 270.333,556 261,541C254.333,530.667 247.917,520.417 241.75,510.25C235.583,500.083 229.333,489.833 223,479.5C202.333,525.5 192,573.667 192,624C192,654 195.667,683.083 203,711.25C210.333,739.417 220.75,765.917 234.25,790.75C247.75,815.583 264.083,838.417 283.25,859.25C302.417,880.083 323.833,897.917 347.5,912.75C371.167,927.583 396.833,939.167 424.5,947.5C452.167,955.833 481.333,960 512,960C558.667,960 601.583,950.75 640.75,932.25C679.917,913.75 713.667,888.917 742,857.75C770.333,826.583 792.417,790.5 808.25,749.5C824.083,708.5 832,665.5 832,620.5Z" fill="#FFFFFF" fill-opacity="1">
  </path>
</svg>