<!-- Exported by Character Map UWP -->
<svg height="100%" viewBox="64 64 960 960" width="100%" xmlns="http://www.w3.org/2000/svg" xmlns:xlink="http://www.w3.org/1999/xlink">
  <path d="M128,896L474.5,896C484.833,919 497.333,940.333 512,960L96,960C87.3333,960 79.8333,956.833 73.5,950.5C67.1667,944.167 64,936.667 64,928L64,96C64,87.3334 67.1667,79.8334 73.5,73.5C79.8333,67.1667 87.3333,64.0001 96,64C104.667,64.0001 112.167,67.1667 118.5,73.5C124.833,79.8334 128,87.3334 128,96L128,384L274.5,384L393.5,265.5C399.833,259.167 407.333,256 416,256C424.667,256 432.167,259.167 438.5,265.5L548.5,375L500.5,418L416,333.5L310.5,438.5C304.167,444.833 296.667,448 288,448L128,448L128,704L275.5,704L906.5,136C909.833,133 913.167,130.917 916.5,129.75C919.833,128.583 923.667,128 928,128C937,128 944.583,131.083 950.75,137.25C956.917,143.417 960,151 960,160C960,164.667 959.167,169.083 957.5,173.25C955.833,177.417 953.167,181 949.5,184L608.5,490.5C606.167,492.5 603.167,494.5 599.5,496.5C595.833,498.5 592.667,500.333 590,502C583.333,506.667 576.917,511.333 570.75,516C564.583,520.667 558.5,525.833 552.5,531.5C547.167,536.167 542,541.167 537,546.5C532,551.833 527.167,557.333 522.5,563C520.167,565.667 517.917,568.667 515.75,572C513.583,575.333 511.167,578.167 508.5,580.5L309.5,760C303.833,765.333 296.667,768 288,768L128,768ZM1024,842C1024,845.333 1022.75,850.167 1020.25,856.5C1017.75,862.833 1014.58,869.75 1010.75,877.25C1006.92,884.75 1002.5,892.5 997.5,900.5C992.5,908.5 987.5,915.75 982.5,922.25C977.5,928.75 972.583,934.083 967.75,938.25C962.917,942.417 958.833,944.5 955.5,944.5C950.5,944.5 944.75,943.333 938.25,941C931.75,938.667 925.167,936 918.5,933C911.833,930 905.083,927.333 898.25,925C891.417,922.667 885,921.5 879,921.5C871.333,921.5 864.667,923.667 859,928C853.333,932.333 849.667,938.333 848,946L836.5,1006.5C835.833,1009.83 834.333,1012.5 832,1014.5C829.667,1016.5 827,1017.83 824,1018.5C815,1020.5 805.75,1021.92 796.25,1022.75C786.75,1023.58 777.333,1024 768,1024C758.667,1024 749.25,1023.58 739.75,1022.75C730.25,1021.92 721,1020.5 712,1018.5C709,1017.83 706.333,1016.5 704,1014.5C701.667,1012.5 700.167,1009.83 699.5,1006.5L688,946C686.333,938.333 682.833,932.25 677.5,927.75C672.167,923.25 665.667,921 658,921C652.333,921 646.083,922.25 639.25,924.75C632.417,927.25 625.5,929.917 618.5,932.75C611.5,935.583 604.667,938.25 598,940.75C591.333,943.25 585.5,944.5 580.5,944.5C577.167,944.5 573.083,942.417 568.25,938.25C563.417,934.083 558.5,928.75 553.5,922.25C548.5,915.75 543.5,908.5 538.5,900.5C533.5,892.5 529.083,884.75 525.25,877.25C521.417,869.75 518.25,862.833 515.75,856.5C513.25,850.167 512,845.333 512,842C512,836 515.417,830.417 522.25,825.25C529.083,820.083 536.667,814.667 545,809C553.333,803.333 560.917,797.167 567.75,790.5C574.583,783.833 578,776.167 578,767.5C578,759.167 574.583,751.75 567.75,745.25C560.917,738.75 553.333,732.667 545,727C536.667,721.333 529.083,715.917 522.25,710.75C515.417,705.583 512,700 512,694C512,690.667 513.25,685.833 515.75,679.5C518.25,673.167 521.417,666.25 525.25,658.75C529.083,651.25 533.5,643.5 538.5,635.5C543.5,627.5 548.5,620.25 553.5,613.75C558.5,607.25 563.417,601.917 568.25,597.75C573.083,593.583 577.167,591.5 580.5,591.5C585.5,591.5 591.25,592.667 597.75,595C604.25,597.333 610.833,600 617.5,603C624.167,606 630.917,608.667 637.75,611C644.583,613.333 651,614.5 657,614.5C664.667,614.5 671.333,612.333 677,608C682.667,603.667 686.333,597.667 688,590L699.5,529.5C700.167,526.167 701.667,523.5 704,521.5C706.333,519.5 709,518.167 712,517.5C721,515.5 730.25,514.083 739.75,513.25C749.25,512.417 758.667,512 768,512C777.333,512 786.75,512.417 796.25,513.25C805.75,514.083 815,515.5 824,517.5C827,518.167 829.667,519.5 832,521.5C834.333,523.5 835.833,526.167 836.5,529.5L848,590C849.667,597.667 853.167,603.75 858.5,608.25C863.833,612.75 870.333,615 878,615C883.667,615 889.917,613.75 896.75,611.25C903.583,608.75 910.5,606.083 917.5,603.25C924.5,600.417 931.333,597.75 938,595.25C944.667,592.75 950.5,591.5 955.5,591.5C958.833,591.5 962.917,593.583 967.75,597.75C972.583,601.917 977.5,607.25 982.5,613.75C987.5,620.25 992.5,627.5 997.5,635.5C1002.5,643.5 1006.92,651.25 1010.75,658.75C1014.58,666.25 1017.75,673.167 1020.25,679.5C1022.75,685.833 1024,690.667 1024,694C1024,700 1020.58,705.583 1013.75,710.75C1006.92,715.917 999.333,721.333 991,727C982.667,732.667 975.083,738.833 968.25,745.5C961.417,752.167 958,759.833 958,768.5C958,776.833 961.417,784.25 968.25,790.75C975.083,797.25 982.667,803.333 991,809C999.333,814.667 1006.92,820.083 1013.75,825.25C1020.58,830.417 1024,836 1024,842ZM832,768C832,759.333 830.333,751.083 827,743.25C823.667,735.417 819.083,728.583 813.25,722.75C807.417,716.917 800.583,712.333 792.75,709C784.917,705.667 776.667,704 768,704C759,704 750.667,705.667 743,709C735.333,712.333 728.583,716.917 722.75,722.75C716.917,728.583 712.333,735.333 709,743C705.667,750.667 704,759 704,768C704,777 705.667,785.417 709,793.25C712.333,801.083 716.833,807.833 722.5,813.5C728.167,819.167 734.917,823.667 742.75,827C750.583,830.333 759,832 768,832C777,832 785.333,830.333 793,827C800.667,823.667 807.417,819.083 813.25,813.25C819.083,807.417 823.667,800.667 827,793C830.333,785.333 832,777 832,768Z" fill="#FFFFFF" fill-opacity="1">
  </path>
</svg>