<!-- Exported by Character Map UWP -->
<svg height="100%" viewBox="0 0 1024 1024" width="100%" xmlns="http://www.w3.org/2000/svg" xmlns:xlink="http://www.w3.org/1999/xlink">
  <path d="M1024,512C1024,559.333 1017.92,604.833 1005.75,648.5C993.583,692.167 976.417,732.917 954.25,770.75C932.083,808.583 905.417,843.083 874.25,874.25C843.083,905.417 808.583,932.083 770.75,954.25C732.917,976.417 692.167,993.583 648.5,1005.75C604.833,1017.92 559.333,1024 512,1024C464.667,1024 419.167,1017.92 375.5,1005.75C331.833,993.583 291,976.417 253,954.25C215,932.083 180.5,905.5 149.5,874.5C118.5,843.5 91.9167,809 69.75,771C47.5833,733 30.4167,692.167 18.25,648.5C6.08333,604.833 0,559.333 0,512C0,464.667 6.08333,419.167 18.25,375.5C30.4167,331.833 47.5833,291.083 69.75,253.25C91.9167,215.417 118.583,180.917 149.75,149.75C180.917,118.583 215.417,91.9167 253.25,69.75C291.083,47.5834 331.833,30.4167 375.5,18.25C419.167,6.08337 464.667,0 512,0C549,0 585.167,3.91669 620.5,11.75C655.833,19.5834 689.833,30.8334 722.5,45.5C755.167,60.1667 786.083,78.3334 815.25,100C844.417,121.667 871.333,146.167 896,173.5L896,32C896,23.3334 899.167,15.8334 905.5,9.5C911.833,3.16669 919.333,0 928,0C936.667,0 944.167,3.16669 950.5,9.5C956.833,15.8334 960,23.3334 960,32C960,72.3334 960.083,112.5 960.25,152.5C960.417,192.5 960.5,232.667 960.5,273C960.5,278.667 960.167,284.25 959.5,289.75C958.833,295.25 957.333,300.25 955,304.75C952.667,309.25 949.333,312.917 945,315.75C940.667,318.583 935,320 928,320L672,320C663.333,320 655.833,316.833 649.5,310.5C643.167,304.167 640,296.667 640,288C640,279.333 643.167,271.833 649.5,265.5C655.833,259.167 663.333,256 672,256L879.5,256C858.5,226 834.417,199.167 807.25,175.5C780.083,151.833 750.667,131.75 719,115.25C687.333,98.75 654,86.0834 619,77.25C584,68.4167 548.333,64.0001 512,64C470.667,64.0001 430.917,69.3334 392.75,80C354.583,90.6667 318.917,105.75 285.75,125.25C252.583,144.75 222.417,168.083 195.25,195.25C168.083,222.417 144.75,252.583 125.25,285.75C105.75,318.917 90.6667,354.583 80,392.75C69.3333,430.917 64,470.667 64,512C64,553.333 69.3333,593.083 80,631.25C90.6667,669.417 105.667,705.083 125,738.25C144.333,771.417 167.667,801.667 195,829C222.333,856.333 252.583,879.667 285.75,899C318.917,918.333 354.583,933.333 392.75,944C430.917,954.667 470.667,960 512,960C552.333,960 591.417,954.917 629.25,944.75C667.083,934.583 702.583,919.917 735.75,900.75C768.917,881.583 799.417,858.167 827.25,830.5C855.083,802.833 879.167,771.667 899.5,737C920.167,701.667 935.417,665.5 945.25,628.5C955.083,591.5 960,552.667 960,512C960,503.333 963.167,495.833 969.5,489.5C975.833,483.167 983.333,480 992,480C1000.67,480 1008.17,483.167 1014.5,489.5C1020.83,495.833 1024,503.333 1024,512Z" fill="#FFFFFF" fill-opacity="1">
  </path>
</svg>