<!-- Exported by Character Map UWP -->
<svg height="100%" viewBox="0 0 1024 1024" width="100%" xmlns="http://www.w3.org/2000/svg" xmlns:xlink="http://www.w3.org/1999/xlink">
  <path d="M1023.5,512C1023.5,559 1017.42,604.333 1005.25,648C993.083,691.667 975.917,732.417 953.75,770.25C931.583,808.083 904.917,842.583 873.75,873.75C842.583,904.917 808.083,931.583 770.25,953.75C732.417,975.917 691.667,993.083 648,1005.25C604.333,1017.42 559,1023.5 512,1023.5C465,1023.5 419.667,1017.42 376,1005.25C332.333,993.083 291.583,975.917 253.75,953.75C215.917,931.583 181.417,904.917 150.25,873.75C119.083,842.583 92.3333,808.083 70,770.25C47.6667,732.417 30.4167,691.667 18.25,648C6.08333,604.333 0,559 0,512C0,503.333 3.16667,495.833 9.5,489.5C15.8333,483.167 23.3333,480 32,480C40.6667,480 48.1667,483.167 54.5,489.5C60.8333,495.833 64,503.333 64,512C64,566.667 73.5833,619.333 92.75,670C111.917,720.667 139.5,766.5 175.5,807.5C196.5,831.5 219.833,852.917 245.5,871.75C271.167,890.583 298.333,906.5 327,919.5C355.667,932.5 385.5,942.417 416.5,949.25C447.5,956.083 479,959.5 511,959.5C552.333,959.5 592.083,954.167 630.25,943.5C668.417,932.833 704.167,917.833 737.5,898.5C770.833,879.167 801.083,855.917 828.25,828.75C855.417,801.583 878.75,771.417 898.25,738.25C917.75,705.083 932.833,669.417 943.5,631.25C954.167,593.083 959.5,553.333 959.5,512C959.5,470.667 954.167,430.917 943.5,392.75C932.833,354.583 917.75,318.917 898.25,285.75C878.75,252.583 855.417,222.417 828.25,195.25C801.083,168.083 770.917,144.75 737.75,125.25C704.583,105.75 668.917,90.6667 630.75,80C592.583,69.3334 552.833,64.0001 511.5,64C474.833,64.0001 439,68.4167 404,77.25C369,86.0834 335.75,98.75 304.25,115.25C272.75,131.75 243.417,151.833 216.25,175.5C189.083,199.167 165.167,226 144.5,256L352,256C360.667,256 368.167,259.167 374.5,265.5C380.833,271.833 384,279.333 384,288C384,296.667 380.833,304.167 374.5,310.5C368.167,316.833 360.667,320 352,320L96,320C89,320 83.3333,318.583 79,315.75C74.6667,312.917 71.3333,309.25 69,304.75C66.6667,300.25 65.1667,295.25 64.5,289.75C63.8333,284.25 63.5,278.667 63.5,273C63.5,232.667 63.5833,192.5 63.75,152.5C63.9167,112.5 64,72.3334 64,32C64,23.3334 67.1667,15.8334 73.5,9.5C79.8333,3.16669 87.3333,0 96,0C104.667,0 112.167,3.16669 118.5,9.5C124.833,15.8334 128,23.3334 128,32L128,173C152.333,145.667 179.083,121.25 208.25,99.75C237.417,78.25 268.333,60.0834 301,45.25C333.667,30.4167 367.75,19.1667 403.25,11.5C438.75,3.83337 474.833,0 511.5,0C558.5,0 603.833,6.08337 647.5,18.25C691.167,30.4167 732,47.5834 770,69.75C808,91.9167 842.583,118.583 873.75,149.75C904.917,180.917 931.583,215.5 953.75,253.5C975.917,291.5 993.083,332.333 1005.25,376C1017.42,419.667 1023.5,465 1023.5,512ZM512,512L672,512C680.667,512 688.167,515.167 694.5,521.5C700.833,527.833 704,535.333 704,544C704,552.667 700.833,560.167 694.5,566.5C688.167,572.833 680.667,576 672,576L480,576C471.333,576 463.833,572.833 457.5,566.5C451.167,560.167 448,552.667 448,544L448,224C448,215.333 451.167,207.833 457.5,201.5C463.833,195.167 471.333,192 480,192C488.667,192 496.167,195.167 502.5,201.5C508.833,207.833 512,215.333 512,224Z" fill="#FFFFFF" fill-opacity="1">
  </path>
</svg>