<!-- Exported by Character Map UWP -->
<svg height="100%" viewBox="256 0 512 1024" width="100%" xmlns="http://www.w3.org/2000/svg" xmlns:xlink="http://www.w3.org/1999/xlink">
  <path d="M352,1024C339,1024 326.667,1021.5 315,1016.5C303.333,1011.5 293.083,1004.58 284.25,995.75C275.417,986.917 268.5,976.667 263.5,965C258.5,953.333 256,941 256,928L256,96C256,83 258.5,70.6667 263.5,59C268.5,47.3334 275.417,37.0834 284.25,28.25C293.083,19.4167 303.333,12.5 315,7.5C326.667,2.5 339,0 352,0L672,0C685,0 697.333,2.5 709,7.5C720.667,12.5 730.917,19.4167 739.75,28.25C748.583,37.0834 755.5,47.3334 760.5,59C765.5,70.6667 768,83 768,96L768,928C768,941 765.5,953.333 760.5,965C755.5,976.667 748.583,986.917 739.75,995.75C730.917,1004.58 720.667,1011.5 709,1016.5C697.333,1021.5 685,1024 672,1024ZM672,960C680.667,960 688.167,956.833 694.5,950.5C700.833,944.167 704,936.667 704,928L704,96C704,87.3334 700.833,79.8334 694.5,73.5C688.167,67.1667 680.667,64.0001 672,64L352,64C343.333,64.0001 335.833,67.1667 329.5,73.5C323.167,79.8334 320,87.3334 320,96L320,160L416,160C424.667,160 432.167,163.167 438.5,169.5C444.833,175.833 448,183.333 448,192C448,200.667 444.833,208.167 438.5,214.5C432.167,220.833 424.667,224 416,224L320,224L320,320L480,320C488.667,320 496.167,323.167 502.5,329.5C508.833,335.833 512,343.333 512,352C512,360.667 508.833,368.167 502.5,374.5C496.167,380.833 488.667,384 480,384L320,384L320,480L416,480C424.667,480 432.167,483.167 438.5,489.5C444.833,495.833 448,503.333 448,512C448,520.667 444.833,528.167 438.5,534.5C432.167,540.833 424.667,544 416,544L320,544L320,640L480,640C488.667,640 496.167,643.167 502.5,649.5C508.833,655.833 512,663.333 512,672C512,680.667 508.833,688.167 502.5,694.5C496.167,700.833 488.667,704 480,704L320,704L320,800L416,800C424.667,800 432.167,803.167 438.5,809.5C444.833,815.833 448,823.333 448,832C448,840.667 444.833,848.167 438.5,854.5C432.167,860.833 424.667,864 416,864L320,864L320,928C320,936.667 323.167,944.167 329.5,950.5C335.833,956.833 343.333,960 352,960Z" fill="#FFFFFF" fill-opacity="1">
  </path>
</svg>