<!-- Exported by Character Map UWP -->
<svg height="100%" viewBox="64 64 896 896" width="100%" xmlns="http://www.w3.org/2000/svg" xmlns:xlink="http://www.w3.org/1999/xlink">
  <path d="M834.5,64C851.167,64.0001 867.083,67.4167 882.25,74.25C897.417,81.0834 910.75,90.25 922.25,101.75C933.75,113.25 942.917,126.583 949.75,141.75C956.583,156.917 960,172.833 960,189.5L960,834.5C960,851.167 956.583,867.083 949.75,882.25C942.917,897.417 933.75,910.75 922.25,922.25C910.75,933.75 897.417,942.917 882.25,949.75C867.083,956.583 851.167,960 834.5,960L608,960C599.333,960 591.833,956.833 585.5,950.5C579.167,944.167 576,936.667 576,928C576,919.333 579.167,911.833 585.5,905.5C591.833,899.167 599.333,896 608,896L832,896C841,896 849.333,894.333 857,891C864.667,887.667 871.417,883.083 877.25,877.25C883.083,871.417 887.667,864.667 891,857C894.333,849.333 896,841 896,832L896,512L637.5,512C620.167,512 603.917,508.5 588.75,501.5C573.583,494.5 560.333,485.167 549,473.5C537.667,461.833 528.667,448.25 522,432.75C515.333,417.25 512,401 512,384L512,128L192,128C183,128 174.667,129.667 167,133C159.333,136.333 152.583,140.917 146.75,146.75C140.917,152.583 136.333,159.333 133,167C129.667,174.667 128,183 128,192L128,416C128,424.667 124.833,432.167 118.5,438.5C112.167,444.833 104.667,448 96,448C87.3333,448 79.8333,444.833 73.5,438.5C67.1667,432.167 64,424.667 64,416L64,189.5C64,172.833 67.4167,156.917 74.25,141.75C81.0833,126.583 90.25,113.25 101.75,101.75C113.25,90.25 126.583,81.0834 141.75,74.25C156.917,67.4167 172.833,64.0001 189.5,64ZM896,448L896,192C896,183.333 894.333,175.083 891,167.25C887.667,159.417 883.083,152.583 877.25,146.75C871.417,140.917 864.583,136.333 856.75,133C848.917,129.667 840.667,128 832,128L576,128L576,384C576,393 577.667,401.417 581,409.25C584.333,417.083 588.833,423.833 594.5,429.5C600.167,435.167 606.917,439.667 614.75,443C622.583,446.333 631,448 640,448ZM448,928C448,936.667 444.833,944.167 438.5,950.5C432.167,956.833 424.667,960 416,960L96,960C87.3333,960 79.8333,956.833 73.5,950.5C67.1667,944.167 64,936.667 64,928L64,608C64,599.333 67.1667,591.833 73.5,585.5C79.8333,579.167 87.3333,576 96,576C104.667,576 112.167,579.167 118.5,585.5C124.833,591.833 128,599.333 128,608L128,851L393.5,585.5C399.833,579.167 407.333,576 416,576C424.667,576 432.167,579.167 438.5,585.5C444.833,591.833 448,599.333 448,608C448,616.667 444.833,624.167 438.5,630.5L173,896L416,896C424.667,896 432.167,899.167 438.5,905.5C444.833,911.833 448,919.333 448,928Z" fill="#FFFFFF" fill-opacity="1">
  </path>
</svg>