<!-- Exported by Character Map UWP -->
<svg height="100%" viewBox="0 128 1024 704" width="100%" xmlns="http://www.w3.org/2000/svg" xmlns:xlink="http://www.w3.org/1999/xlink">
  <path d="M256,480C256,488.667 252.833,496.167 246.5,502.5C240.167,508.833 232.667,512 224,512C218.333,512 212.667,510.333 207,507L91,434.5C85.3333,444.167 80.1667,453.667 75.5,463C70.8333,472.333 66.1667,482 61.5,492C58.8333,498 55.0833,502.833 50.25,506.5C45.4167,510.167 39.5,512 32.5,512C23.8333,512 16.25,509 9.75,503C3.25,497 0,489.5 0,480.5C0,474.833 1.83333,467.5 5.5,458.5C9.16667,449.5 13.9167,439.833 19.75,429.5C25.5833,419.167 32.0833,408.583 39.25,397.75C46.4167,386.917 53.5,376.5 60.5,366.5C67.5,356.5 74.1667,347.5 80.5,339.5C86.8333,331.5 91.8333,325.167 95.5,320.5C119.167,292.167 145.583,266.833 174.75,244.5C203.917,222.167 234.833,202.333 267.5,185C305.5,165 345.083,150.5 386.25,141.5C427.417,132.5 469.333,128 512,128C540.667,128 569.083,130.083 597.25,134.25C625.417,138.417 653.167,145 680.5,154L639.5,208.5C623.833,204.167 608,200.75 592,198.25C576,195.75 560,194 544,193L544,352C544,360.667 540.833,368.167 534.5,374.5C528.167,380.833 520.667,384 512,384C503.333,384 495.833,380.833 489.5,374.5C483.167,368.167 480,360.667 480,352L480,193C444.333,195 410.083,200.833 377.25,210.5C344.417,220.167 313.167,233.083 283.5,249.25C253.833,265.417 225.917,284.667 199.75,307C173.583,329.333 149.5,354.333 127.5,382L241,453C251,459.333 256,468.333 256,480ZM496,832C480.667,832 466.167,829.083 452.5,823.25C438.833,817.417 426.917,809.417 416.75,799.25C406.583,789.083 398.583,777.167 392.75,763.5C386.917,749.833 384,735.333 384,720C384,706.667 386,694.583 390,683.75C394,672.917 399.833,662.167 407.5,651.5L743,204C746,200 749.75,197 754.25,195C758.75,193 763.333,192 768,192C776.667,192 784.167,195.167 790.5,201.5C796.833,207.833 800,215.333 800,224C800,227.667 799.167,231.667 797.5,236L604,749.5C599.333,762.167 594.25,773.083 588.75,782.25C583.25,791.417 575,800.333 564,809C544.333,824.333 521.667,832 496,832ZM1024,480.5C1024,489.5 1020.75,497 1014.25,503C1007.75,509 1000.17,512 991.5,512C984.833,512 979,510.167 974,506.5C969,502.833 965.167,498 962.5,492C958.5,482 954,472.25 949,462.75C944,453.25 938.667,443.833 933,434.5L817,507C811.333,510.333 805.667,512 800,512C791.333,512 783.833,508.833 777.5,502.5C771.167,496.167 768,488.667 768,480C768,468.333 773,459.333 783,453L896.5,382C888.833,372.667 881,363.667 873,355C865,346.333 856.667,337.667 848,329L872,265L872.5,264.5C886.833,277.167 901.417,291.5 916.25,307.5C931.083,323.5 945.25,340.333 958.75,358C972.25,375.667 984.417,393.917 995.25,412.75C1006.08,431.583 1014.83,450 1021.5,468C1023.17,472.333 1024,476.5 1024,480.5Z" fill="#FFFFFF" fill-opacity="1">
  </path>
</svg>