<!-- Exported by Character Map UWP -->
<svg height="100%" viewBox="0 64 1024 896" width="100%" xmlns="http://www.w3.org/2000/svg" xmlns:xlink="http://www.w3.org/1999/xlink">
  <path d="M320,927.5C320,923.833 320.667,920.167 322,916.5L642,84.5C644.667,78.1667 648.75,73.1667 654.25,69.5C659.75,65.8334 665.833,64.0001 672.5,64C681.5,64.0001 689,67.2501 695,73.75C701,80.2501 704,87.8334 704,96.5C704,100.167 703.333,103.833 702,107.5L382,939.5C379.333,945.833 375.25,950.833 369.75,954.5C364.25,958.167 358.167,960 351.5,960C342.5,960 335,956.75 329,950.25C323,943.75 320,936.167 320,927.5ZM224.5,768C214.167,768 205.833,764.333 199.5,757L7.5,533C2.5,527 0,520 0,512C0,504 2.5,497 7.5,491L199.5,267C205.833,259.667 214.167,256 224.5,256C233.833,256 241.417,259.167 247.25,265.5C253.083,271.833 256,279.5 256,288.5C256,296.833 253.5,303.667 248.5,309L74,512L248.5,715C253.5,720.667 256,727.5 256,735.5C256,744.5 253.083,752.167 247.25,758.5C241.417,764.833 233.833,768 224.5,768ZM768,767.5C768,759.5 770.5,752.667 775.5,747L950,544L775.5,341C770.5,335.667 768,328.833 768,320.5C768,311.5 770.917,303.833 776.75,297.5C782.583,291.167 790.167,288 799.5,288C809.833,288 818.167,291.667 824.5,299L1016.5,523C1021.5,529 1024,536 1024,544C1024,552 1021.5,559 1016.5,565L824.5,789C818.167,796.333 809.833,800 799.5,800C790.167,800 782.583,796.833 776.75,790.5C770.917,784.167 768,776.5 768,767.5Z" fill="#FFFFFF" fill-opacity="1">
  </path>
</svg>