<!-- Exported by Character Map UWP -->
<svg height="100%" viewBox="32 64 960 896" width="100%" xmlns="http://www.w3.org/2000/svg" xmlns:xlink="http://www.w3.org/1999/xlink">
  <path d="M992,480C992,493 989.5,505.333 984.5,517C979.5,528.667 972.583,538.917 963.75,547.75C954.917,556.583 944.667,563.5 933,568.5C921.333,573.5 909,576 896,576L736,576C727.333,576 719.833,572.833 713.5,566.5L640,493.5L589.5,544L694.5,649.5C700.833,655.833 704,663.333 704,672L704,864C704,877 701.5,889.333 696.5,901C691.5,912.667 684.583,922.917 675.75,931.75C666.917,940.583 656.667,947.5 645,952.5C633.333,957.5 621,960 608,960C595,960 582.667,957.5 571,952.5C559.333,947.5 549.083,940.583 540.25,931.75C531.417,922.917 524.5,912.667 519.5,901C514.5,889.333 512,877 512,864L512,749.5L448,685.5C438.333,695.5 428.917,705.417 419.75,715.25C410.583,725.083 401,733.917 391,741.75C381,749.583 370.167,755.917 358.5,760.75C346.833,765.583 333.5,768 318.5,768L128,768C115,768 102.667,765.5 91,760.5C79.3333,755.5 69.0833,748.583 60.25,739.75C51.4167,730.917 44.5,720.667 39.5,709C34.5,697.333 32,685 32,672C32,659 34.5,646.667 39.5,635C44.5,623.333 51.4167,613.083 60.25,604.25C69.0833,595.417 79.3333,588.5 91,583.5C102.667,578.5 115,576 128,576L274,576L312.5,535.5C295.167,527.833 281.417,516.083 271.25,500.25C261.083,484.417 256,467 256,448L256,294.5C256,280.5 258.667,267.25 264,254.75C269.333,242.25 276.667,231.333 286,222C295.333,212.667 306.25,205.333 318.75,200C331.25,194.667 344.5,192 358.5,192L576,192L576,189.5C576,172.167 579.5,155.917 586.5,140.75C593.5,125.583 602.833,112.333 614.5,101C626.167,89.6667 639.75,80.6667 655.25,74C670.75,67.3334 687,64.0001 704,64C721,64.0001 737.25,67.3334 752.75,74C768.25,80.6667 781.833,89.6667 793.5,101C805.167,112.333 814.5,125.583 821.5,140.75C828.5,155.917 832,172.167 832,189.5C832,203.833 829.917,217.583 825.75,230.75C821.583,243.917 815.667,255.917 808,266.75C800.333,277.583 791,287.083 780,295.25C769,303.417 756.667,309.667 743,314L813.5,384L896,384C909,384 921.333,386.5 933,391.5C944.667,396.5 954.917,403.417 963.75,412.25C972.583,421.083 979.5,431.333 984.5,443C989.5,454.667 992,467 992,480ZM640,192C640,201 641.667,209.417 645,217.25C648.333,225.083 652.833,231.833 658.5,237.5C664.167,243.167 670.917,247.667 678.75,251C686.583,254.333 695,256 704,256C713,256 721.333,254.333 729,251C736.667,247.667 743.417,243.083 749.25,237.25C755.083,231.417 759.667,224.667 763,217C766.333,209.333 768,201 768,192C768,183.333 766.333,175.083 763,167.25C759.667,159.417 755.083,152.583 749.25,146.75C743.417,140.917 736.583,136.333 728.75,133C720.917,129.667 712.667,128 704,128C695,128 686.667,129.667 679,133C671.333,136.333 664.583,140.917 658.75,146.75C652.917,152.583 648.333,159.333 645,167C641.667,174.667 640,183 640,192ZM896,512C904.667,512 912.167,508.833 918.5,502.5C924.833,496.167 928,488.667 928,480C928,471.333 924.833,463.833 918.5,457.5C912.167,451.167 904.667,448 896,448L800,448C791.333,448 783.833,444.833 777.5,438.5L665.5,326.5C661.833,322.833 658.083,319.167 654.25,315.5C650.417,311.833 646.667,308.167 643,304.5C641,302.833 638.5,301.167 635.5,299.5C632.5,297.833 630,296.167 628,294.5C620.667,289.5 614.167,283.75 608.5,277.25C602.833,270.75 597.667,263.667 593,256L358.5,256C347.833,256 338.75,259.75 331.25,267.25C323.75,274.75 320,283.833 320,294.5L320,448C320,456.667 323.167,464.167 329.5,470.5C335.833,476.833 343.333,480 352,480C365.667,480 374.583,475.083 378.75,465.25C382.917,455.417 385,443.333 385,429C385,419.667 384.667,410 384,400C383.333,390 383,380.333 383,371C383,364 383.417,357.333 384.25,351C385.083,344.667 386.667,339.25 389,334.75C391.333,330.25 394.667,326.667 399,324C403.333,321.333 409,320 416,320L512,320C520.667,320 528.167,323.167 534.5,329.5C540.833,335.833 544,343.333 544,352C544,360.667 540.833,368.167 534.5,374.5C528.167,380.833 520.667,384 512,384L448,384L448,448C448,463.667 445.083,476.75 439.25,487.25C433.417,497.75 425.833,508.667 416.5,520C411.833,525.667 406.667,531.167 401,536.5C395.333,541.833 389.833,547.333 384.5,553C372.167,565.667 360,578.5 348,591.5C336,604.5 323.833,617.333 311.5,630C305.5,636.667 297.667,640 288,640L128,640C119.333,640 111.833,643.167 105.5,649.5C99.1667,655.833 96,663.333 96,672C96,680.667 99.1667,688.167 105.5,694.5C111.833,700.833 119.333,704 128,704L318.5,704C331.833,704 343.333,699.167 353,689.5L425.5,617.5C431.833,611.167 439.333,608 448,608C456.667,608 464.167,611.167 470.5,617.5L566.5,713.5C572.833,719.833 576,727.333 576,736L576,864C576,872.667 579.167,880.167 585.5,886.5C591.833,892.833 599.333,896 608,896C616.667,896 624.167,892.833 630.5,886.5C636.833,880.167 640,872.667 640,864L640,685.5L521.5,566.5C515.167,560.167 512,552.667 512,544C512,535.333 515.167,527.833 521.5,521.5L617.5,425.5C623.833,419.167 631.333,416 640,416C648.667,416 656.167,419.167 662.5,425.5L749.5,512Z" fill="#FFFFFF" fill-opacity="1">
  </path>
</svg>