<!-- Exported by Character Map UWP -->
<svg height="100%" viewBox="128 0 768 1024" width="100%" xmlns="http://www.w3.org/2000/svg" xmlns:xlink="http://www.w3.org/1999/xlink">
  <path d="M284.5,1024C263.5,1024 243.5,1019.75 224.5,1011.25C205.5,1002.75 188.917,991.417 174.75,977.25C160.583,963.083 149.25,946.5 140.75,927.5C132.25,908.5 128,888.5 128,867.5L128,156.5C128,135.5 132.25,115.5 140.75,96.5C149.25,77.5 160.583,60.9167 174.75,46.75C188.917,32.5834 205.5,21.25 224.5,12.75C243.5,4.25 263.5,0 284.5,0L739.5,0C760.5,0 780.5,4.25 799.5,12.75C818.5,21.25 835.083,32.5834 849.25,46.75C863.417,60.9167 874.75,77.5 883.25,96.5C891.75,115.5 896,135.5 896,156.5L896,867.5C896,888.5 891.75,908.5 883.25,927.5C874.75,946.5 863.417,963.083 849.25,977.25C835.083,991.417 818.5,1002.75 799.5,1011.25C780.5,1019.75 760.5,1024 739.5,1024ZM736,960C749,960 761.333,957.5 773,952.5C784.667,947.5 794.917,940.583 803.75,931.75C812.583,922.917 819.5,912.667 824.5,901C829.5,889.333 832,877 832,864L832,160C832,147 829.5,134.667 824.5,123C819.5,111.333 812.583,101.083 803.75,92.25C794.917,83.4167 784.667,76.5001 773,71.5C761.333,66.5001 749,64.0001 736,64L288,64C275,64.0001 262.667,66.5001 251,71.5C239.333,76.5001 229.083,83.4167 220.25,92.25C211.417,101.083 204.5,111.333 199.5,123C194.5,134.667 192,147 192,160L192,864C192,877 194.5,889.333 199.5,901C204.5,912.667 211.417,922.917 220.25,931.75C229.083,940.583 239.333,947.5 251,952.5C262.667,957.5 275,960 288,960ZM352,384C339,384 326.667,381.5 315,376.5C303.333,371.5 293.083,364.583 284.25,355.75C275.417,346.917 268.5,336.667 263.5,325C258.5,313.333 256,301 256,288L256,224C256,211 258.5,198.667 263.5,187C268.5,175.333 275.417,165.083 284.25,156.25C293.083,147.417 303.333,140.5 315,135.5C326.667,130.5 339,128 352,128L672,128C685,128 697.333,130.5 709,135.5C720.667,140.5 730.917,147.417 739.75,156.25C748.583,165.083 755.5,175.333 760.5,187C765.5,198.667 768,211 768,224L768,288C768,301 765.5,313.333 760.5,325C755.5,336.667 748.583,346.917 739.75,355.75C730.917,364.583 720.667,371.5 709,376.5C697.333,381.5 685,384 672,384ZM672,320C680.667,320 688.167,316.833 694.5,310.5C700.833,304.167 704,296.667 704,288L704,224C704,215.333 700.833,207.833 694.5,201.5C688.167,195.167 680.667,192 672,192L352,192C343.333,192 335.833,195.167 329.5,201.5C323.167,207.833 320,215.333 320,224L320,288C320,296.667 323.167,304.167 329.5,310.5C335.833,316.833 343.333,320 352,320ZM256,576C256,567 257.667,558.667 261,551C264.333,543.333 268.917,536.583 274.75,530.75C280.583,524.917 287.333,520.333 295,517C302.667,513.667 311,512 320,512C328.667,512 336.917,513.667 344.75,517C352.583,520.333 359.417,524.917 365.25,530.75C371.083,536.583 375.667,543.417 379,551.25C382.333,559.083 384,567.333 384,576C384,585 382.333,593.333 379,601C375.667,608.667 371.083,615.417 365.25,621.25C359.417,627.083 352.667,631.667 345,635C337.333,638.333 329,640 320,640C311,640 302.583,638.333 294.75,635C286.917,631.667 280.167,627.167 274.5,621.5C268.833,615.833 264.333,609.083 261,601.25C257.667,593.417 256,585 256,576ZM448,576C448,567 449.667,558.667 453,551C456.333,543.333 460.917,536.583 466.75,530.75C472.583,524.917 479.333,520.333 487,517C494.667,513.667 503,512 512,512C520.667,512 528.917,513.667 536.75,517C544.583,520.333 551.417,524.917 557.25,530.75C563.083,536.583 567.667,543.417 571,551.25C574.333,559.083 576,567.333 576,576C576,585 574.333,593.333 571,601C567.667,608.667 563.083,615.417 557.25,621.25C551.417,627.083 544.667,631.667 537,635C529.333,638.333 521,640 512,640C503,640 494.583,638.333 486.75,635C478.917,631.667 472.167,627.167 466.5,621.5C460.833,615.833 456.333,609.083 453,601.25C449.667,593.417 448,585 448,576ZM640,576C640,567 641.667,558.667 645,551C648.333,543.333 652.917,536.583 658.75,530.75C664.583,524.917 671.333,520.333 679,517C686.667,513.667 695,512 704,512C712.667,512 720.917,513.667 728.75,517C736.583,520.333 743.417,524.917 749.25,530.75C755.083,536.583 759.667,543.417 763,551.25C766.333,559.083 768,567.333 768,576C768,585 766.333,593.333 763,601C759.667,608.667 755.083,615.417 749.25,621.25C743.417,627.083 736.667,631.667 729,635C721.333,638.333 713,640 704,640C695,640 686.583,638.333 678.75,635C670.917,631.667 664.167,627.167 658.5,621.5C652.833,615.833 648.333,609.083 645,601.25C641.667,593.417 640,585 640,576ZM256,768C256,759 257.667,750.667 261,743C264.333,735.333 268.917,728.583 274.75,722.75C280.583,716.917 287.333,712.333 295,709C302.667,705.667 311,704 320,704C328.667,704 336.917,705.667 344.75,709C352.583,712.333 359.417,716.917 365.25,722.75C371.083,728.583 375.667,735.417 379,743.25C382.333,751.083 384,759.333 384,768C384,777 382.333,785.333 379,793C375.667,800.667 371.083,807.417 365.25,813.25C359.417,819.083 352.667,823.667 345,827C337.333,830.333 329,832 320,832C311,832 302.583,830.333 294.75,827C286.917,823.667 280.167,819.167 274.5,813.5C268.833,807.833 264.333,801.083 261,793.25C257.667,785.417 256,777 256,768ZM448,768C448,759 449.667,750.667 453,743C456.333,735.333 460.917,728.583 466.75,722.75C472.583,716.917 479.333,712.333 487,709C494.667,705.667 503,704 512,704C520.667,704 528.917,705.667 536.75,709C544.583,712.333 551.417,716.917 557.25,722.75C563.083,728.583 567.667,735.417 571,743.25C574.333,751.083 576,759.333 576,768C576,777 574.333,785.333 571,793C567.667,800.667 563.083,807.417 557.25,813.25C551.417,819.083 544.667,823.667 537,827C529.333,830.333 521,832 512,832C503,832 494.583,830.333 486.75,827C478.917,823.667 472.167,819.167 466.5,813.5C460.833,807.833 456.333,801.083 453,793.25C449.667,785.417 448,777 448,768ZM640,768C640,759 641.667,750.667 645,743C648.333,735.333 652.917,728.583 658.75,722.75C664.583,716.917 671.333,712.333 679,709C686.667,705.667 695,704 704,704C712.667,704 720.917,705.667 728.75,709C736.583,712.333 743.417,716.917 749.25,722.75C755.083,728.583 759.667,735.417 763,743.25C766.333,751.083 768,759.333 768,768C768,777 766.333,785.333 763,793C759.667,800.667 755.083,807.417 749.25,813.25C743.417,819.083 736.667,823.667 729,827C721.333,830.333 713,832 704,832C695,832 686.583,830.333 678.75,827C670.917,823.667 664.167,819.167 658.5,813.5C652.833,807.833 648.333,801.083 645,793.25C641.667,785.417 640,777 640,768Z" fill="#FFFFFF" fill-opacity="1">
  </path>
</svg>