<!-- Exported by Character Map UWP -->
<svg height="100%" viewBox="224 0 512 1024" width="100%" xmlns="http://www.w3.org/2000/svg" xmlns:xlink="http://www.w3.org/1999/xlink">
  <path d="M640,568C672.333,593.667 696.417,624.083 712.25,659.25C728.083,694.417 736,732.333 736,773C736,807.667 729.083,840.25 715.25,870.75C701.417,901.25 682.75,927.833 659.25,950.5C635.75,973.167 608.583,991.083 577.75,1004.25C546.917,1017.42 514.333,1024 480,1024C445.667,1024 413.083,1017.42 382.25,1004.25C351.417,991.083 324.25,973.167 300.75,950.5C277.25,927.833 258.583,901.25 244.75,870.75C230.917,840.25 224,807.667 224,773C224,732.333 231.917,694.417 247.75,659.25C263.583,624.083 287.667,593.667 320,568L320,156.5C320,134.833 324.333,114.5 333,95.5C341.667,76.5001 353.333,59.9167 368,45.75C382.667,31.5834 399.667,20.4167 419,12.25C438.333,4.08337 458.667,0 480,0C502.333,0 523.167,4.16669 542.5,12.5C561.833,20.8334 578.75,32.2501 593.25,46.75C607.75,61.2501 619.167,78.1667 627.5,97.5C635.833,116.833 640,137.667 640,160ZM576,601L576,160C576,147 573.5,134.667 568.5,123C563.5,111.333 556.583,101.083 547.75,92.25C538.917,83.4167 528.667,76.5001 517,71.5C505.333,66.5001 493,64.0001 480,64C467,64.0001 454.667,66.5001 443,71.5C431.333,76.5001 421.083,83.4167 412.25,92.25C403.417,101.083 396.5,111.333 391.5,123C386.5,134.667 384,147 384,160L384,601C368.667,611.667 355,623 343,635C331,647 320.917,659.917 312.75,673.75C304.583,687.583 298.417,702.583 294.25,718.75C290.083,734.917 288,752.667 288,772C288,798 293.167,822.417 303.5,845.25C313.833,868.083 327.833,888 345.5,905C363.167,922 383.583,935.417 406.75,945.25C429.917,955.083 454.333,960 480,960C505.667,960 530.083,955.083 553.25,945.25C576.417,935.417 596.833,922 614.5,905C632.167,888 646.167,868.083 656.5,845.25C666.833,822.417 672,798 672,772C672,752.667 669.917,734.917 665.75,718.75C661.583,702.583 655.417,687.583 647.25,673.75C639.083,659.917 629,647 617,635C605,623 591.333,611.667 576,601ZM608,770.5C608,787.833 604.5,804.083 597.5,819.25C590.5,834.417 581.167,847.667 569.5,859C557.833,870.333 544.25,879.333 528.75,886C513.25,892.667 497,896 480,896C463,896 446.75,892.667 431.25,886C415.75,879.333 402.167,870.333 390.5,859C378.833,847.667 369.5,834.417 362.5,819.25C355.5,804.083 352,787.833 352,770.5C352,755.5 354.333,741.25 359,727.75C363.667,714.25 370.167,701.917 378.5,690.75C386.833,679.583 396.917,669.917 408.75,661.75C420.583,653.583 433.833,647.667 448.5,644C448.167,643 448,641.667 448,640L448,288C448,279.333 451.167,271.833 457.5,265.5C463.833,259.167 471.333,256 480,256C488.667,256 496.167,259.167 502.5,265.5C508.833,271.833 512,279.333 512,288L512,640C512,641.667 511.833,643 511.5,644C525.833,647.667 539,653.583 551,661.75C563,669.917 573.167,679.583 581.5,690.75C589.833,701.917 596.333,714.25 601,727.75C605.667,741.25 608,755.5 608,770.5Z" fill="#FFFFFF" fill-opacity="1">
  </path>
</svg>