<!-- Exported by Character Map UWP -->
<svg height="100%" viewBox="0 15 1024 994" width="100%" xmlns="http://www.w3.org/2000/svg" xmlns:xlink="http://www.w3.org/1999/xlink">
  <path d="M0,756.5L0,267.5C0,258.167 1.5,248.833 4.5,239.5C7.5,230.167 11.6667,221.583 17,213.75C22.3333,205.917 28.6667,198.917 36,192.75C43.3333,186.583 51.5,181.667 60.5,178L429,31C456,20.3334 483.667,15 512,15C540.333,15 568,20.3334 595,31L963.5,178C972.5,181.667 980.667,186.583 988,192.75C995.333,198.917 1001.67,205.917 1007,213.75C1012.33,221.583 1016.5,230.167 1019.5,239.5C1022.5,248.833 1024,258.167 1024,267.5L1024,756.5C1024,766.167 1022.5,775.583 1019.5,784.75C1016.5,793.917 1012.33,802.417 1007,810.25C1001.67,818.083 995.333,825.167 988,831.5C980.667,837.833 972.5,842.667 963.5,846L595,993C568,1003.67 540.333,1009 512,1009C483.667,1009 456,1003.67 429,993L60.5,846C51.5,842.667 43.3333,837.833 36,831.5C28.6667,825.167 22.3333,818.083 17,810.25C11.6667,802.417 7.5,793.917 4.5,784.75C1.5,775.583 0,766.167 0,756.5ZM512,945C533,945 552.833,941.333 571.5,934L940,786.5C946,783.833 950.833,779.833 954.5,774.5C958.167,769.167 960,763.167 960,756.5L960,267.5C960,260.833 958.167,254.833 954.5,249.5C950.833,244.167 946,240.167 940,237.5L571.5,90C552.167,82.3334 532.333,78.5 512,78.5C491.667,78.5 471.833,82.3334 452.5,90L84,237.5C78,240.167 73.1667,244.167 69.5,249.5C65.8333,254.833 64,260.833 64,267.5L64,756.5C64,763.167 65.8333,769.167 69.5,774.5C73.1667,779.833 78,783.833 84,786.5L452.5,934C471.167,941.333 491,945 512,945ZM480,437L211,317C205.333,314.333 200.75,310.5 197.25,305.5C193.75,300.5 192,294.667 192,288C192,279.333 195.083,271.833 201.25,265.5C207.417,259.167 214.833,256 223.5,256C227.833,256 232.333,257 237,259L512,381L787,259C791,257 795.333,256 800,256C808.667,256 816.167,259.167 822.5,265.5C828.833,271.833 832,279.333 832,288C832,294.667 830.25,300.5 826.75,305.5C823.25,310.5 818.667,314.333 813,317L544,437L544,736C544,744.667 540.833,752.167 534.5,758.5C528.167,764.833 520.667,768 512,768C503.333,768 495.833,764.833 489.5,758.5C483.167,752.167 480,744.667 480,736Z" fill="#FFFFFF" fill-opacity="1">
  </path>
</svg>