<!-- Exported by Character Map UWP -->
<svg height="100%" viewBox="76 64 872 899" width="100%" xmlns="http://www.w3.org/2000/svg" xmlns:xlink="http://www.w3.org/1999/xlink">
  <path d="M948,834.5C948,852.167 944.667,868.833 938,884.5C931.333,900.167 922.25,913.75 910.75,925.25C899.25,936.75 885.667,945.833 870,952.5C854.333,959.167 837.667,962.5 820,962.5L204,962.5C186.333,962.5 169.667,959.167 154,952.5C138.333,945.833 124.75,936.667 113.25,925C101.75,913.333 92.6667,899.75 86,884.25C79.3333,868.75 76,852.167 76,834.5C76,828.833 76.3333,823.417 77,818.25C77.6667,813.083 78.6667,807.833 80,802.5L163.5,482.5C169.833,457.833 182.083,437.083 200.25,420.25C218.417,403.417 240,392.833 265,388.5C261.667,376.5 259.333,364.417 258,352.25C256.667,340.083 256,327.667 256,315C256,280.333 262.917,247.75 276.75,217.25C290.583,186.75 309.25,160.167 332.75,137.5C356.25,114.833 383.417,96.9167 414.25,83.75C445.083,70.5834 477.667,64.0001 512,64C546.333,64.0001 578.917,70.5834 609.75,83.75C640.583,96.9167 667.75,114.833 691.25,137.5C714.75,160.167 733.417,186.75 747.25,217.25C761.083,247.75 768,280.333 768,315C768,327.667 767.333,340.083 766,352.25C764.667,364.417 762.333,376.5 759,388.5C771.333,390.5 783,394.333 794,400C805,405.667 814.917,412.583 823.75,420.75C832.583,428.917 840.25,438.25 846.75,448.75C853.25,459.25 858,470.5 861,482.5L944,802.5C945.333,807.833 946.333,813.083 947,818.25C947.667,823.417 948,828.833 948,834.5ZM331.5,386.5L402.5,386.5C395.833,375.5 391.083,364.417 388.25,353.25C385.417,342.083 384,330.167 384,317.5C384,300.167 387.5,283.917 394.5,268.75C401.5,253.583 410.833,240.333 422.5,229C434.167,217.667 447.75,208.667 463.25,202C478.75,195.333 495,192 512,192C529,192 545.25,195.333 560.75,202C576.25,208.667 589.833,217.667 601.5,229C613.167,240.333 622.5,253.583 629.5,268.75C636.5,283.917 640,300.167 640,317.5C640,330.167 638.583,342.083 635.75,353.25C632.917,364.417 628.167,375.5 621.5,386.5L692,386.5C696.667,374.833 699.833,363.25 701.5,351.75C703.167,340.25 704,328.333 704,316C704,290 698.833,265.583 688.5,242.75C678.167,219.917 664.167,200 646.5,183C628.833,166 608.417,152.583 585.25,142.75C562.083,132.917 537.667,128 512,128C486.333,128 461.917,132.917 438.75,142.75C415.583,152.583 395.167,166 377.5,183C359.833,200 345.833,219.917 335.5,242.75C325.167,265.583 320,290 320,316C320,340.333 323.833,363.833 331.5,386.5ZM512,384C521,384 529.333,382.333 537,379C544.667,375.667 551.417,371.083 557.25,365.25C563.083,359.417 567.667,352.667 571,345C574.333,337.333 576,329 576,320C576,311.333 574.333,303.083 571,295.25C567.667,287.417 563.083,280.583 557.25,274.75C551.417,268.917 544.583,264.333 536.75,261C528.917,257.667 520.667,256 512,256C503,256 494.667,257.667 487,261C479.333,264.333 472.583,268.917 466.75,274.75C460.917,280.583 456.333,287.333 453,295C449.667,302.667 448,311 448,320C448,329 449.667,337.417 453,345.25C456.333,353.083 460.833,359.833 466.5,365.5C472.167,371.167 478.917,375.667 486.75,379C494.583,382.333 503,384 512,384ZM884,835C884,829 883.333,823.5 882,818.5L799,498.5C795.333,484.833 787.667,473.417 776,464.25C764.333,455.083 751.333,450.5 737,450.5L287,450.5C272.333,450.5 259.25,454.917 247.75,463.75C236.25,472.583 228.667,484.167 225,498.5L142,818.5C140.667,823.5 140,828.833 140,834.5C140,843.167 141.667,851.417 145,859.25C148.333,867.083 152.917,873.917 158.75,879.75C164.583,885.583 171.417,890.167 179.25,893.5C187.083,896.833 195.333,898.5 204,898.5L820,898.5C828.667,898.5 836.917,896.833 844.75,893.5C852.583,890.167 859.417,885.667 865.25,880C871.083,874.333 875.667,867.583 879,859.75C882.333,851.917 884,843.667 884,835Z" fill="#FFFFFF" fill-opacity="1">
  </path>
</svg>