<?xml version="1.0" encoding="UTF-8"?>
<!DOCTYPE svg PUBLIC "-//W3C//DTD SVG 1.1//EN" "http://www.w3.org/Graphics/SVG/1.1/DTD/svg11.dtd">
<svg xmlns="http://www.w3.org/2000/svg" version="1.1" width="14px" height="14px" style="shape-rendering:geometricPrecision; text-rendering:geometricPrecision; image-rendering:optimizeQuality; fill-rule:evenodd; clip-rule:evenodd" xmlns:xlink="http://www.w3.org/1999/xlink">
<g><path style="opacity:0.899" fill="#fefffe" d="M -0.5,-0.5 C 4.16667,-0.5 8.83333,-0.5 13.5,-0.5C 13.5,4.16667 13.5,8.83333 13.5,13.5C 11.5,13.5 9.5,13.5 7.5,13.5C 11.759,13.2195 13.4256,10.8862 12.5,6.5C 10.5,6.5 8.5,6.5 6.5,6.5C 6.5,4.5 6.5,2.5 6.5,0.5C 2.11382,-0.42564 -0.219514,1.24103 -0.5,5.5C -0.5,3.5 -0.5,1.5 -0.5,-0.5 Z M 7.5,0.5 C 11.5,-0.166667 13.1667,1.5 12.5,5.5C 8.5,6.16667 6.83333,4.5 7.5,0.5 Z"/></g>
<g><path style="opacity:0.821" fill="#fefffe" d="M -0.5,8.5 C -0.5,8.16667 -0.5,7.83333 -0.5,7.5C 1.5,7.5 3.5,7.5 5.5,7.5C 5.5,9.5 5.5,11.5 5.5,13.5C 5.16667,13.5 4.83333,13.5 4.5,13.5C 4.28252,9.94047 3.28252,9.94047 1.5,13.5C 0.833333,13.5 0.166667,13.5 -0.5,13.5C -0.5,12.8333 -0.5,12.1667 -0.5,11.5C 3.05953,9.71748 3.05953,8.71748 -0.5,8.5 Z"/></g>
</svg>
